<?xml version="1.0" encoding="utf-8"?>
<!-- Generator: Adobe Illustrator 16.2.1, SVG Export Plug-In . SVG Version: 6.00 Build 0)  -->
<!DOCTYPE svg PUBLIC "-//W3C//DTD SVG 1.1//EN" "http://www.w3.org/Graphics/SVG/1.1/DTD/svg11.dtd">
<svg version="1.1" id="Layer_1" xmlns="http://www.w3.org/2000/svg" xmlns:xlink="http://www.w3.org/1999/xlink" x="0px" y="0px"
	 width="395.843px" height="133.535px" viewBox="0 0 395.843 133.535" enable-background="new 0 0 395.843 133.535"
	 xml:space="preserve">
<g>
	<path fill="#DD6B02" d="M50.183,122.451c0,0,46.616-16.371,91.814-16.371c46.719,0,79.875,18.348,114.143,18.348
		c31.91,0,44.479-11.686,44.479-11.686s-10.434,20.793-41.867,20.793c-37.146,0-63.471-15.418-107.274-19.189
		C108.854,110.679,50.183,122.451,50.183,122.451z"/>
	<g>
		<path fill="#003671" d="M310.454,70.844V28.873h-9.473v4.508c-2.58-2.943-7.178-5.518-12.049-5.518
			c-9.938,0-19.043,7.82-19.043,24.375c0,18.396,8.281,25.939,18.58,25.939c5.039,0,8.982-2.371,12.469-5.572
			c-0.371,9.167-4.113,34.226-41.469,34.226c-40.262,0-61.983-17.42-111.101-17.336c-39.764,0.072-96.009,27.846-96.009,27.846
			s55.621-20.422,103.154-17.623c47.536,2.791,65.028,17.236,104.095,17.236c50.67,0,50.92-38.318,50.842-46.111H310.454z
			 M290.22,69.438c-6.99,0-10.854-5.33-10.854-17.473c0-10.213,3.676-15.363,10.486-15.363c4.781,0,9.199,3.496,11.312,6.348v20.324
			C298.681,66.404,294.726,69.438,290.22,69.438z"/>
		<path fill="#003671" d="M310.458,65.529h0.008C310.466,65.529,310.462,65.473,310.458,65.529z"/>
	</g>
	<path fill="#003671" d="M93.623,77.47v-4.781c-3.31,3.306-8.002,5.791-13.242,5.791c-7.819,0-16.744-4.417-16.744-16.283
		c0-10.762,8.279-15.635,19.224-15.635c4.509,0,8.094,0.643,10.761,1.838v-3.584c0-5.248-3.218-8.189-9.105-8.189
		c-4.968,0-8.83,0.92-12.602,3.033l-3.68-7.172c4.599-2.852,9.752-4.322,16.559-4.322c10.761,0,18.12,5.24,18.12,16.188V77.47
		H93.623z M93.623,56.865c-2.572-1.291-5.885-2.117-11.037-2.117c-6.072,0-9.936,2.76-9.936,7.176c0,4.781,3.038,8.004,9.293,8.004
		c5.058,0,9.474-3.131,11.679-6.164V56.865z"/>
	<path fill="#003671" d="M197.585,56.678h-31.92c1.013,9.291,6.258,13.25,12.145,13.25c4.047,0,7.265-1.475,10.484-3.867
		l5.612,6.072c-4.23,4.05-9.292,6.347-16.65,6.347c-11.312,0-20.877-9.107-20.877-25.111c0-16.371,8.645-25.203,21.156-25.203
		c13.702,0,20.326,11.129,20.326,24.193C197.86,54.105,197.677,55.67,197.585,56.678z M176.891,36.719
		c-6.349,0-10.213,4.418-11.039,12.141h22.442C187.835,42.236,184.708,36.719,176.891,36.719z"/>
	<path fill="#003671" d="M222.071,78.48c-6.527,0-13.613-2.576-18.489-6.164l4.325-7.174c4.506,3.129,9.566,4.785,14.072,4.785
		c5.98,0,8.832-1.934,8.832-5.336c0-3.68-4.23-5.43-11.225-8.094c-10.393-4.051-14.162-7.543-14.162-15.178
		c0-8.645,6.805-13.154,16.463-13.154c6.072,0,12.053,2.205,16.375,5.334l-4.143,7.266c-3.951-2.76-7.91-4.139-12.508-4.139
		c-4.6,0-6.623,1.842-6.623,4.414c0,2.393,1.656,4.139,8.924,6.988c10.762,4.143,16.279,7.086,16.279,16.193
		C240.192,74.894,231.548,78.48,222.071,78.48z"/>
	<path fill="#003671" d="M145.853,29.176v0.02c-0.021,0-0.039-0.006-0.06-0.006c-2.03,0-3.724,1.379-4.236,3.246h-0.019
		l-7.252,22.959c-1.47,4.688-2.758,9.197-3.312,11.865c-0.642-2.668-2.021-7.178-3.588-11.865l-8.644-26.219h-9.933l17.289,48.294
		h9.477l17.014-48.294H145.853z"/>
	<path fill="#003671" d="M343.634,28.166c-4.965,0-9.748,2.117-12.141,5.609V10.412l-7.082,3.719v0.014
		c-1.408,0.734-2.377,2.184-2.389,3.877h-0.004V77.47h9.475V49.23c0-7.816,3.592-12.324,9.936-12.324
		c6.256,0,9.936,3.492,9.936,13.248V77.47h9.471V49.783C360.835,35.521,354.858,28.166,343.634,28.166z"/>
	<path fill="#003671" d="M395.843,37.822v-8.646H383.89V10.412l-9.295,4.967v13.797h-2.617v0.006
		c-0.014-0.004-0.029-0.006-0.043-0.006c-2.35,0-4.254,1.904-4.254,4.254c0,0.064,0.014,0.121,0.018,0.184v4.209h6.896v27.875
		c0,8.645,4.143,12.783,10.854,12.783c3.771,0,6.994-0.918,9.293-2.209l1.102-8.369c-1.746,1.008-4.506,1.934-6.99,1.934
		c-3.496,0-4.963-1.293-4.963-5.795V37.822H395.843z"/>
	<g>
		<path fill="#003671" d="M254.792,29.176v0.02c-0.018,0-0.037-0.006-0.059-0.006c-2.436,0-4.41,1.975-4.41,4.414
			c0,0.021,0.006,0.039,0.006,0.066v43.8h9.475V29.176H254.792z"/>
		<path fill="#003671" d="M255.128,12.238c-3.4,0-6.164-2.762-6.164-6.072c0-3.404,2.764-6.166,6.164-6.166
			c3.311,0,6.072,2.762,6.072,6.166C261.2,9.477,258.438,12.238,255.128,12.238z"/>
	</g>
	<path fill="#003671" d="M54.949,29.176v0.02c-0.02,0-0.041-0.006-0.062-0.006c-2.12,0-3.89,1.5-4.312,3.492h-0.007l-4.852,19.949
		c-0.921,3.68-1.84,8.189-2.392,10.582c-0.55-2.393-1.563-6.715-2.576-10.49l-6.531-23.547h-4.222v0.02
		c-0.019,0-0.037-0.006-0.058-0.006c-2.121,0-3.892,1.5-4.313,3.492H25.62l-5.476,19.949c-1.009,3.771-2.115,8.189-2.666,10.582
		c-0.46-2.301-1.473-6.902-2.392-10.582L9.382,29.176H0L13.246,77.47h8.096l6.438-24.285c1.013-3.68,2.023-8.098,2.484-10.395
		c0.462,2.297,1.473,6.625,2.484,10.299l6.531,24.38h8.092L60.8,29.176H54.949z"/>
</g>
</svg>
